<?xml version="1.0" encoding="UTF-8" standalone="no"?>
<!-- Created with Inkscape (http://www.inkscape.org/) -->

<svg
   xmlns:dc="http://purl.org/dc/elements/1.1/"
   xmlns:cc="http://creativecommons.org/ns#"
   xmlns:rdf="http://www.w3.org/1999/02/22-rdf-syntax-ns#"
   xmlns:svg="http://www.w3.org/2000/svg"
   xmlns="http://www.w3.org/2000/svg"
   xmlns:sodipodi="http://sodipodi.sourceforge.net/DTD/sodipodi-0.dtd"
   xmlns:inkscape="http://www.inkscape.org/namespaces/inkscape"
   width="104.68941mm"
   height="104.91865mm"
   viewBox="0 0 104.68942 104.91865"
   version="1.1"
   id="svg8"
   inkscape:version="0.92.2 (5c3e80d, 2017-08-06)"
   sodipodi:docname="hos.svg">
  <defs
     id="defs2">
    <inkscape:path-effect
       effect="perspective-envelope"
       up_left_point="150.72937,131.11093"
       up_right_point="155.77409,133.61581"
       down_left_point="150.77587,141.20034"
       down_right_point="155.79734,138.66051"
       id="path-effect4548"
       is_visible="true"
       deform_type="perspective"
       horizontal_mirror="false"
       vertical_mirror="false"
       overflow_perspective="false" />
    <inkscape:path-effect
       effect="perspective-envelope"
       up_left_point="12.880891,48.696143"
       up_right_point="65.098001,22.285066"
       down_left_point="13.122637,101.15488"
       down_right_point="65.581474,127.20253"
       id="path-effect4537"
       is_visible="true"
       deform_type="perspective"
       horizontal_mirror="false"
       vertical_mirror="false"
       overflow_perspective="false" />
  </defs>
  <sodipodi:namedview
     id="base"
     pagecolor="#ffffff"
     bordercolor="#666666"
     borderopacity="1.0"
     inkscape:pageopacity="0.0"
     inkscape:pageshadow="2"
     inkscape:zoom="2"
     inkscape:cx="210.4574"
     inkscape:cy="217.49972"
     inkscape:document-units="mm"
     inkscape:current-layer="layer1"
     showgrid="false"
     inkscape:snap-grids="false"
     inkscape:window-width="1920"
     inkscape:window-height="1017"
     inkscape:window-x="-4"
     inkscape:window-y="-4"
     inkscape:window-maximized="1"
     fit-margin-top="0"
     fit-margin-left="0"
     fit-margin-right="0"
     fit-margin-bottom="0">
    <inkscape:grid
       type="xygrid"
       id="grid6450"
       originx="-50.579956"
       originy="-108.38502" />
  </sodipodi:namedview>
  <metadata
     id="metadata5">
    <rdf:RDF>
      <cc:Work
         rdf:about="">
        <dc:format>image/svg+xml</dc:format>
        <dc:type
           rdf:resource="http://purl.org/dc/dcmitype/StillImage" />
        <dc:title></dc:title>
      </cc:Work>
    </rdf:RDF>
  </metadata>
  <g
     inkscape:label="Layer 1"
     inkscape:groupmode="layer"
     id="layer1"
     transform="translate(-50.579948,-83.696342)">
    <path
       sodipodi:type="star"
       style="opacity:0.956;fill:#e6e6e6;fill-opacity:1;paint-order:normal"
       id="path11410"
       sodipodi:sides="6"
       sodipodi:cx="107.95"
       sodipodi:cy="122.375"
       sodipodi:r1="66.146362"
       sodipodi:r2="57.284431"
       sodipodi:arg1="1.5667963"
       sodipodi:arg2="2.0903951"
       inkscape:flatsided="true"
       inkscape:rounded="0"
       inkscape:randomized="0"
       d="M 108.21458,188.52083 50.798318,155.67706 50.533732,89.531222 107.68541,56.229167 l 57.41627,32.843778 0.26458,66.145835 z"
       inkscape:transform-center-y="-3.3741989e-006"
       transform="matrix(0.91364961,0.00398657,-0.00346044,0.7930693,4.7196451,38.673421)" />
    <g
       aria-label="H"
       transform="matrix(2.3934923,0.01044365,-0.01044365,2.3934923,-273.09539,-275.10138)"
       style="font-style:normal;font-weight:normal;font-size:40px;line-height:125%;font-family:sans-serif;letter-spacing:0px;word-spacing:0px;opacity:0.5;fill:#000000;fill-opacity:1;stroke:none;stroke-width:1px;stroke-linecap:butt;stroke-linejoin:miter;stroke-opacity:1"
       id="flowRoot11412" />
    <g
       aria-label="H"
       style="font-style:normal;font-variant:normal;font-weight:normal;font-stretch:normal;font-size:10.58333302px;line-height:125%;font-family:SquareFont;-inkscape-font-specification:'SquareFont, Normal';font-variant-ligatures:normal;font-variant-caps:normal;font-variant-numeric:normal;font-feature-settings:normal;text-align:start;letter-spacing:0px;word-spacing:0px;writing-mode:lr-tb;text-anchor:start;opacity:1;fill:#5599ff;fill-opacity:1"
       id="text4528"
       transform="rotate(0.25,-13990.401,8719.2615)">
      <path
         d="m 21.659575,105.39377 c 0,0 -8.536938,-4.23889 -8.536938,-4.23889 0,0 -0.241746,-52.458737 -0.241746,-52.458737 0,0 8.4976,-4.298031 8.4976,-4.298031 0,0 0.11764,25.528132 0.11764,25.528132 0,0 22.036457,-1.876803 22.036457,-1.876803 0,0 -0.160253,-34.775674 -0.160253,-34.775674 0,0 21.725666,-10.988701 21.725666,-10.988701 0,0 0.483473,104.917464 0.483473,104.917464 0,0 -21.826237,-10.83749 -21.826237,-10.83749 0,0 -0.160254,-34.775663 -0.160254,-34.775663 0,0 -22.053048,-1.723734 -22.053048,-1.723734 0,0 0.11764,25.528127 0.11764,25.528127 z"
         style="font-style:normal;font-variant:normal;font-weight:normal;font-stretch:normal;font-size:10.58333302px;font-family:SquareFont;-inkscape-font-specification:'SquareFont, Normal';font-variant-ligatures:normal;font-variant-caps:normal;font-variant-numeric:normal;font-feature-settings:normal;text-align:start;writing-mode:lr-tb;text-anchor:start;opacity:1;fill:#5599ff;fill-opacity:1"
         id="path4530"
         inkscape:connector-curvature="0"
         inkscape:path-effect="#path-effect4537"
         inkscape:original-d="M 27.180425,113.13444 H 12.423014 V 36.35315 H 27.180425 V 68.487941 H 51.294881 V 36.35315 H 65.14331 v 76.78129 H 51.294881 V 80.999649 H 27.180425 Z" />
    </g>
    <g
       aria-label="S"
       style="font-style:normal;font-variant:normal;font-weight:normal;font-stretch:normal;font-size:10.58333302px;line-height:125%;font-family:SquareFont;-inkscape-font-specification:'SquareFont, Normal';font-variant-ligatures:normal;font-variant-caps:normal;font-variant-numeric:normal;font-feature-settings:normal;text-align:start;letter-spacing:0px;word-spacing:0px;writing-mode:lr-tb;text-anchor:start;fill:#00ccff;fill-opacity:1;stroke:none;stroke-width:0.26458332px;stroke-linecap:butt;stroke-linejoin:miter;stroke-opacity:1"
       id="text4541"
       transform="matrix(10.398677,0.04537308,-0.04537308,10.398677,-1458.5254,-1286.5229)">
      <path
         d="m 150.75641,136.97768 c 0,0 -0.027,-5.86675 -0.027,-5.86675 0,0 5.04472,2.50488 5.04472,2.50488 0,0 0.004,0.8642 0.004,0.8642 0,0 -2.83591,-0.92304 -2.83591,-0.92304 0,0 0.009,1.94876 0.009,1.94876 0,0 2.83268,0.22141 2.83268,0.22141 0,0 0.0135,2.93337 0.0135,2.93337 0,0 -5.02147,2.53983 -5.02147,2.53983 0,0 -0.008,-1.72841 -0.008,-1.72841 0,0 4.26563,-1.42227 4.26563,-1.42227 0,0 -0.007,-1.43569 -0.007,-1.43569 0,0 -4.2705,0.36371 -4.2705,0.36371 z"
         style="font-style:normal;font-variant:normal;font-weight:normal;font-stretch:normal;font-size:10.58333302px;font-family:SquareFont;-inkscape-font-specification:'SquareFont, Normal';font-variant-ligatures:normal;font-variant-caps:normal;font-variant-numeric:normal;font-feature-settings:normal;text-align:start;writing-mode:lr-tb;text-anchor:start;opacity:1;fill:#0000ff;stroke-width:0.26458332px"
         id="path4543"
         inkscape:connector-curvature="0"
         inkscape:path-effect="#path-effect4548"
         inkscape:original-d="m 150.74607,136.76024 v -4.31498 h 5.0953 v 1.27124 h -3.66903 v 1.83452 h 3.66903 v 4.31498 h -5.0953 v -1.27124 h 3.75688 v -1.83452 z" />
    </g>
    <path
       style="opacity:0.956;fill:#1c241c;fill-opacity:1;stroke-width:0.21771801;paint-order:normal"
       d="m 105.5043,150.93138 -0.0234,5.3557 -0.005,1.1565 0.0512,2.3e-4 a 10.847915,4.1991933 0.25 0 0 -0.0529,0.39664 10.847915,4.1991933 0.25 0 0 10.82949,4.24652 10.847915,4.1991933 0.25 0 0 10.86613,-4.15185 10.847915,4.1991933 0.25 0 0 -0.0567,-0.39713 l 0.0584,2.6e-4 0.005,-1.15651 0.0234,-5.35569 z"
       id="path6497-3"
       inkscape:connector-curvature="0" />
  </g>
  <g
     inkscape:groupmode="layer"
     id="layer2"
     inkscape:label="Layer 2"
     style="display:none"
     transform="translate(-50.579948,-83.696342)">
    <path
       style="font-style:normal;font-variant:normal;font-weight:normal;font-stretch:normal;font-size:10.58333302px;line-height:125%;font-family:SquareFont;-inkscape-font-specification:'SquareFont, Normal';font-variant-ligatures:normal;font-variant-caps:normal;font-variant-numeric:normal;font-feature-settings:normal;text-align:start;letter-spacing:0px;word-spacing:0px;writing-mode:lr-tb;text-anchor:start;opacity:0.503;fill:#000000;fill-opacity:1;stroke:none;stroke-width:5.83636522px;stroke-linecap:butt;stroke-linejoin:miter;stroke-opacity:1"
       d="m 360.22461,848.75 -1.97656,1 h 1.98047 z"
       id="path6126-4"
       transform="scale(0.26458333)"
       inkscape:connector-curvature="0" />
    <path
       style="opacity:1;fill:#666666;fill-opacity:1;stroke-width:2.61054206;paint-order:normal"
       d="m 388.33203,382.06641 -82.03711,28.16211 v 208.66015 l 83.83789,28.25195 84.41211,-28.97656 V 411.12109 Z m -1.44922,45 52.32813,11.45507 v 152.35938 l -50.49805,11.25976 -49.91016,-10.92578 V 437.78711 Z"
       transform="scale(0.26458333)"
       id="path11410-2"
       inkscape:connector-curvature="0" />
  </g>
  <g
     inkscape:groupmode="layer"
     id="layer3"
     inkscape:label="Layer 3"
     style="display:inline"
     transform="translate(-50.579948,-83.696342)">
    <ellipse
       style="opacity:1;fill:#666666;fill-opacity:1;stroke-width:0.21771801;paint-order:normal"
       id="path6497-1"
       cx="116.41666"
       cy="150.55258"
       rx="10.847916"
       ry="4.1991935" />
  </g>
</svg>
